<svg xmlns="http://www.w3.org/2000/svg" viewBox="0 0 148.88 145.33"><defs><style>.cls-1{font-size:18px;fill:#e8e1d7;font-family:Lack-Regular, Lack;}.cls-2{fill:none;stroke:#e8e1d7;stroke-miterlimit:10;stroke-width:2px;}</style></defs><title>Dual_extracted_1</title><g id="Layer_2" data-name="Layer 2"><g id="Layer_1-2" data-name="Layer 1"><g id="Dual_Extracted" data-name="Dual Extracted"><g id="dualEx"><text class="cls-1" transform="translate(4.22 79.83) rotate(76.87)">D</text><text class="cls-1" transform="translate(8.32 95.74) rotate(63.84)">U</text><text class="cls-1" transform="translate(15.34 109.45) rotate(51)">A</text><text class="cls-1" transform="matrix(0.78, 0.63, -0.63, 0.78, 25.8, 121.76)">L</text><text class="cls-1" transform="matrix(0.86, 0.51, -0.51, 0.86, 36.76, 130.03)"> </text><text class="cls-1" transform="translate(42.71 133.62) rotate(21.94)">E</text><text class="cls-1" transform="matrix(0.99, 0.17, -0.17, 0.99, 56.11, 138.77)">X</text><text class="cls-1" transform="translate(71.49 141.05) rotate(-2.47)">T</text><text class="cls-1" transform="matrix(0.97, -0.25, 0.25, 0.97, 86.18, 140.15)">R</text><text class="cls-1" transform="translate(100.89 136.04) rotate(-27.56)">A</text><text class="cls-1" transform="matrix(0.77, -0.64, 0.64, 0.77, 114.45, 128.69)">C</text><text class="cls-1" transform="matrix(0.62, -0.79, 0.79, 0.62, 126.14, 118.55)">T</text><text class="cls-1" transform="translate(135.16 106.47) rotate(-63.99)">E</text><text class="cls-1" transform="matrix(0.23, -0.97, 0.97, 0.23, 141.35, 93.31)">D</text></g><path id="drop_v2" data-name="drop v2" class="cls-2" d="M90.44,81.78a16.08,16.08,0,1,1-32.15,0C58.29,68,74.37,37,74.37,37S90.44,65.71,90.44,81.78Z"/><path id="Circle__DUAL_EXTRATED" data-name="Circle_ DUAL EXTRATED" class="cls-2" d="M8.37,70.43a66,66,0,0,1,132,0"/></g></g></g></svg>